<svg xmlns="http://www.w3.org/2000/svg" width="612" height="792" viewBox="0 0 612 792"><path fill="#240010" d="M326.25 424.8496094l25.9316406 7.0839844L368 451.5800781 339 443l-12.75-17.6699219"/><path fill="#240010" d="M326.25 424.8496094l25.9316406 7.0839844L368 451.5800781 339 443l-12.75-17.6699219"/><path fill="#1145F2" d="M335.7402344 501.0234375l-15.5732422-1.8535156L326.5 507.7529297l28.9570313 4.1904297L337.8125 499.7128906"/><path fill="#1145F2" d="M335.7402344 501.0234375l-15.5732422-1.8535156L326.5 507.7529297l28.9570313 4.1904297L337.8125 499.7128906"/><path fill="#1145F2" d="M321.3544922 508.8535156l-9.0214844 9.2734375 28.9345703-.796875 12.8154297-11.5703125H326.5"/><path fill="#1145F2" d="M321.3544922 508.8535156l-9.0214844 9.2734375 28.9345703-.796875 12.8154297-11.5703125H326.5"/><path fill="#6157FF" d="M209.2939453 545.0429688L196.4414063 553.375l69.2285156-3.0449219c2.2993164-2.2431641 57.078125-31.7675781 57.078125-31.7675781l-26.1728516-4.3837891"/><path fill="#6157FF" d="M209.2939453 545.0429688L196.4414063 553.375l69.2285156-3.0449219c2.2993164-2.2431641 57.078125-31.7675781 57.078125-31.7675781l-26.1728516-4.3837891"/><path fill="#F9A089" d="M331.0917969 299.0009766L316.6669922 311.9375l6.4990234 20.8959961L347.2714844 311.9375l-16.1796875-12.9365234"/><path fill="#F9A089" d="M331.0917969 299.0009766L316.6669922 311.9375l6.4990234 20.8959961L347.2714844 311.9375l-16.1796875-12.9365234"/><path fill="#FEC88A" d="M295.1674805 361.3344727l40.5727539-6.0610352-56.0732422-8.2475586L260 348.8300781"/><path fill="#FEC88A" d="M295.1674805 361.3344727l40.5727539-6.0610352-56.0732422-8.2475586L260 348.8300781"/><path fill="#E48BE1" d="M296.5751953 368.0283203L365.3330078 374.25l42.4560547 13.1665039H306"/><path fill="#E48BE1" d="M296.5751953 368.0283203L365.3330078 374.25l42.4560547 13.1665039H306"/><path fill="#96ADFF" d="M226.9580078 559.75l76.5820313-7.5 26.1298828-6.25S288.25 540.5 287.5 541s-85.8300781 9.3300781-85.8300781 9.3300781L226.9580078 562.5"/><path fill="#96ADFF" d="M226.9580078 559.75l76.5820313-7.5 26.1298828-6.25S288.25 540.5 287.5 541s-85.8300781 9.3300781-85.8300781 9.3300781L226.9580078 562.5"/><path fill="#FEC1B2" d="M401 372.1098633l-56-1.9448242-24.8330078-11.2773438L376.1601563 342.75 401 370.1650391"/><path fill="#FEC1B2" d="M401 372.1098633l-56-1.9448242-24.8330078-11.2773438L376.1601563 342.75 401 370.1650391"/><path fill="#E7BCFB" d="M451.625 469.25L426.984375 507S379.625 534.1171875 378.75 532.7460938s41.5839844-54.0810547 41.5839844-54.0810547L450.3125 469.25"/><path fill="#E7BCFB" d="M451.625 469.25L426.984375 507S379.625 534.1171875 378.75 532.7460938s41.5839844-54.0810547 41.5839844-54.0810547L450.3125 469.25"/><path fill="#FFF09D" d="M488.7167969 616.0712891L492.65625 681 459.75 728.9003906 468.25 655.25l20.4667969-39.1787109"/><path fill="#FFF09D" d="M488.7167969 616.0712891L492.65625 681 459.75 728.9003906 468.25 655.25l20.4667969-39.1787109"/><path fill="#F9B94A" d="M377.875 530.5830078L370.5 561.5l-46.0029297 21.875L343 560.25l34.875-29.6669922"/><path fill="#F9B94A" d="M377.875 530.5830078L370.5 561.5l-46.0029297 21.875L343 560.25l34.875-29.6669922m110.8417969 85.4882813L484 706.5l-24.25 22.4003906-2.25-86.7685547 30-26.0605468"/><path fill="#F9B94A" d="M488.7167969 616.0712891L484 706.5l-24.25 22.4003906-2.25-86.7685547 30-26.0605468"/><path fill="#FFF09D" d="M165.2084961 634.90625l-57.7924805 25.9267578 29.8056641-31.3916015 42.6123047-20.4628907-10.5004883 23.3496094"/><path fill="#FFF09D" d="M165.2084961 634.90625l-57.7924805 25.9267578 29.8056641-31.3916015 42.6123047-20.4628907-10.5004883 23.3496094"/><path fill="#FFC65E" d="M83.6669922 666.3339844h18.6665039l5.0825195-5.5009766-9.8330078-1.4990234-13.9160156 7"/><path fill="#FFC65E" d="M83.6669922 666.3339844h18.6665039l5.0825195-5.5009766-9.8330078-1.4990234-13.9160156 7"/><path fill="#002157" d="M113.75 553.6679688l21.1665039-10.3339844L127.5830078 541l-36.4130859 3.75 16.2460937 10"/><path fill="#002157" d="M113.75 553.6679688l21.1665039-10.3339844L127.5830078 541l-36.4130859 3.75 16.2460937 10"/><path fill="#320024" d="M73 499.1699219L87.5 504.0625l2.5 10.6074219-10.4160156 1.6660156"/><path fill="#320024" d="M73 499.1699219L87.5 504.0625l2.5 10.6074219-10.4160156 1.6660156"/><path fill="#712264" d="M141.25 520l10.2495117 9.4169922L161.7919922 505l-13.6821289-16.75L114 493.0009766l-24 15.8330078v5.8359375"/><path fill="#712264" d="M141.25 520l10.2495117 9.4169922L161.7919922 505l-13.6821289-16.75L114 493.0009766l-24 15.8330078v5.8359375"/><path fill="#E88465" d="M158.375 354.75l5.8852539.5234375 9.3364258-6.2353516-14.3779297 3.1176758"/><path fill="#E88465" d="M158.375 354.75l5.8852539.5234375 9.3364258-6.2353516-14.3779297 3.1176758"/><path fill="#D56F4C" d="M173.9584961 310.1674805l-6.0795898 15.368164 4.7880859 4.7988282L179.5 318.7275391"/><path fill="#D56F4C" d="M173.9584961 310.1674805l-6.0795898 15.368164 4.7880859 4.7988282L179.5 318.7275391m80.5 30.102539l42.5830078-3.90625 20.5830078-12.090332L268.75 340.5566406"/><path fill="#D56F4C" d="M260 348.8300781l42.5830078-3.90625 20.5830078-12.090332L268.75 340.5566406"/><path fill="#F2CBAE" d="M323.1660156 332.8334961L279.6669922 339.25l-49-11.2495117L287.25 323.6811523"/><path fill="#F2CBAE" d="M323.1660156 332.8334961L279.6669922 339.25l-49-11.2495117L287.25 323.6811523"/><path fill="#F69D82" d="M211.8798828 391.5L266.75 386.9223633l29.8330078-9.7558594L266.75 374.25l-54.8701172 17.25"/><path fill="#F69D82" d="M211.8798828 391.5L266.75 386.9223633l29.8330078-9.7558594L266.75 374.25l-54.8701172 17.25"/><path fill="#C26D7C" d="M178.1669922 448.3339844S199.75 459.5800782 200.5 458.9150391 264.1665039 443 264.1665039 443L227.5 438.2148438 178.1669922 447.5"/><path fill="#C26D7C" d="M178.1669922 448.3339844S199.75 459.5800782 200.5 458.9150391 264.1665039 443 264.1665039 443L227.5 438.2148438 178.1669922 447.5"/><path fill="#CB5E7C" d="M368 451.5800781L359.75 487l-11.4375 18.75-8.1455078-13.9609375 27.2392578-40.5888672"/><path fill="#CB5E7C" d="M368 451.5800781L359.75 487l-11.4375 18.75-8.1455078-13.9609375 27.2392578-40.5888672"/><path fill="#413D9E" d="M312.3330078 460.8330078S332.1308594 466.25 333.6904297 466.25 368 451.5800781 368 451.5800781L318.5 454.5l-6.1669922 6.3330078"/><path fill="#413D9E" d="M312.3330078 460.8330078S332.1308594 466.25 333.6904297 466.25 368 451.5800781 368 451.5800781L318.5 454.5l-6.1669922 6.3330078"/><path fill="#0B3168" d="M299.3955078 446L288.5 451.5615234 262.8974609 441.75l30.7685547-2.25 5.7294922 6.5"/><path fill="#0B3168" d="M299.3955078 446L288.5 451.5615234 262.8974609 441.75l30.7685547-2.25 5.7294922 6.5"/><path fill="#0A1D35" d="M299.3955078 446L314.5 454.5l52.90625-3.2998047L326.25 440.5l-26.8544922 5.5"/><path fill="#0A1D35" d="M299.3955078 446L314.5 454.5l52.90625-3.2998047L326.25 440.5l-26.8544922 5.5"/><path fill="#240010" d="M326.25 424.8496094L357 433.25l19.1601563-7.9199219L369.25 419.9169922l-43 4.9326172"/><path fill="#240010" d="M326.25 424.8496094L357 433.25l19.1601563-7.9199219L369.25 419.9169922l-43 4.9326172"/><path fill="#230035" d="M264.1665039 443l48.1665039-23.0830078 68.9970703-11.2070313L326.25 424.8496094 264.1665039 443"/><path fill="#230035" d="M264.1665039 443l48.1665039-23.0830078 68.9970703-11.2070313L326.25 424.8496094 264.1665039 443"/><path fill="#032246" d="M302.5830078 410.6669922L326.25 420.25l53.703125-11.1367187-57.2050781-3.21875-20.1650391 4.7724609"/><path fill="#032246" d="M302.5830078 410.6669922L326.25 420.25l53.703125-11.1367187-57.2050781-3.21875-20.1650391 4.7724609m78.7470703-1.9570313L360.5 400.5l-79.0834961-3 38.762207 8.2705078 61.1513672 2.9394531"/><path fill="#032246" d="M381.3300781 408.7099609L360.5 400.5l-79.0834961-3 38.762207 8.2705078 61.1513672 2.9394531"/><path fill="#1E2587" d="M211.8798828 391.5l59.3701172-3 25.3330078-11.3334961L267.75 372.25l-55.8701172 19.25"/><path fill="#1E2587" d="M211.8798828 391.5l59.3701172-3 25.3330078-11.3334961L267.75 372.25l-55.8701172 19.25"/><path fill="#C26D7C" d="M458.1035156 404l3.3583985 6.1269531 19.4208984.5400391v-5.5654297L458.1035156 404"/><path fill="#C26D7C" d="M458.1035156 404l3.3583985 6.1269531 19.4208984.5400391v-5.5654297L458.1035156 404"/><path fill="#06023A" d="M458.1035156 404l-31.8134765-10.25L401 397.7509766l34 18.7021484L458.1035156 404"/><path fill="#06023A" d="M458.1035156 404l-31.8134765-10.25L401 397.7509766l34 18.7021484L458.1035156 404"/><path fill="#CD5470" d="M512.125 162.875s.609375 54.375.7421875 55.875S521 230.75 521 230.75V201l-8.875-38.125"/><path fill="#CD5470" d="M512.125 162.875s.609375 54.375.7421875 55.875S521 230.75 521 230.75V201l-8.875-38.125"/><path fill="#D73373" d="M539.75 221.125L524.625 239l-7.25-8.9375 11.1875-11.3125"/><path fill="#D73373" d="M539.75 221.125L524.625 239l-7.25-8.9375 11.1875-11.3125"/><path fill="#10949A" d="M474.75 175.5l38.1171875 75.9482422L480.75 253 470 243.75"/><path fill="#10949A" d="M474.75 175.5l38.1171875 75.9482422L480.75 253 470 243.75"/><path fill="#A42F57" d="M517.3330078 132.6674805L512.125 140.25v22.625L521 149.25"/><path fill="#A42F57" d="M517.3330078 132.6674805L512.125 140.25v22.625L521 149.25"/><path fill="#F8CE84" d="M451.625 469.25c-.125.375-1.3125 84.125-1.3125 84.125L471.125 437.75l-19.5 31.5z"/><path fill="#F8CE84" d="M451.625 469.25c-.125.375-1.3125 84.125-1.3125 84.125L471.125 437.75l-19.5 31.5z"/><path fill="#FFC16B" d="M64.6665039 587.75l2.9165039 33 60.4897461 16.1425781"/><path fill="#FFC16B" d="M64.6665039 587.75l2.9165039 33 60.4897461 16.1425781"/><path fill="#BD3035" d="M89.4619141 514.1787109l.9042968 31.5986329L155 529.7099609"/><path fill="#BD3035" d="M89.4619141 514.1787109l.9042968 31.5986329L155 529.7099609"/><path fill="#639CE9" d="M261.4155273 645.6757813L192.5 618.9814453l11.4360352-10.7998047"/><path fill="#639CE9" d="M261.4155273 645.6757813L192.5 618.9814453l11.4360352-10.7998047"/><path fill="#0C868C" d="M362.25 134.5l81.0830078 60.1674805L474.75 175.5"/><path fill="#0C868C" d="M362.25 134.5l81.0830078 60.1674805L474.75 175.5"/><path fill="#93F8F7" d="M362.25 134.5L300.9995117 111 427 130.6674805"/><path fill="#93F8F7" d="M362.25 134.5L300.9995117 111 427 130.6674805"/><path fill="#D5FAFE" d="M300.9995117 111L427 130.6674805l-54.3339844-18.2797852"/><path fill="#D5FAFE" d="M300.9995117 111L427 130.6674805l-54.3339844-18.2797852"/><path fill="#4BCED1" d="M362.25 134.5l-74.2504883-9.8325195 13-13.6674805"/><path fill="#4BCED1" d="M362.25 134.5l-74.2504883-9.8325195 13-13.6674805"/><path fill="#FCFD9F" d="M300.9995117 111l-90 33.6674805 77-20"/><path fill="#FCFD9F" d="M300.9995117 111l-90 33.6674805 77-20"/><path fill="#F8F95A" d="M287.9995117 124.6674805s-76.5 19.875-77 20 .25 26.2490234 0 25.4990234 77-45.4990234 77-45.4990234z"/><path fill="#F8F95A" d="M287.9995117 124.6674805s-76.5 19.875-77 20 .25 26.2490234 0 25.4990234 77-45.4990234 77-45.4990234z"/><path fill="#FEDBA7" d="M210.9995117 144.6674805l-41.6660156 71.6669922 41.6660156-46.1679688"/><path fill="#FEDBA7" d="M210.9995117 144.6674805l-41.6660156 71.6669922 41.6660156-46.1679688"/><path fill="#EBA840" d="M210.9995117 170.1665039l-41.6660156 46.1679688s13.1279297 14.3007813 13.1279297 13.6342773 28.5380859-59.8022461 28.5380859-59.8022461z"/><path fill="#EBA840" d="M210.9995117 170.1665039l-41.6660156 46.1679688s13.1279297 14.3007813 13.1279297 13.6342773 28.5380859-59.8022461 28.5380859-59.8022461z"/><path fill="#FFCDA0" d="M169.3334961 216.3344727l4.3334961 87 8.7944336-73.3657227"/><path fill="#FFCDA0" d="M169.3334961 216.3344727l4.3334961 87 8.7944336-73.3657227"/><path fill="#DD620B" d="M182.4614258 229.96875l-8.7944336 73.3657227 17.8334961 9.2485351"/><path fill="#DD620B" d="M182.4614258 229.96875l-8.7944336 73.3657227 17.8334961 9.2485351"/><path fill="#FF95C9" d="M83.6669922 173.0009766l51.6665039 87.8325195-17.7265625-59.9995117"/><path fill="#FF95C9" d="M83.6669922 173.0009766l51.6665039 87.8325195-17.7265625-59.9995117"/><path fill="#EBFCFE" d="M169.9301758 227.3344727l-52.3232422-26.5004883 54.0595703 61.1669922"/><path fill="#EBFCFE" d="M169.9301758 227.3344727l-52.3232422-26.5004883 54.0595703 61.1669922"/><path fill="#A40855" d="M117.6069336 200.8339844l54.0595703 61.1669922 1.0170899 21.5908203"/><path fill="#A40855" d="M117.6069336 200.8339844l54.0595703 61.1669922 1.0170899 21.5908203"/><path fill="#900E4E" d="M154.8369141 256.7753906l-19.503418 4.0581055 38.3334961 42.5009766"/><path fill="#900E4E" d="M154.8369141 256.7753906l-19.503418 4.0581055 38.3334961 42.5009766"/><path fill="#FBBFDC" d="M135.3334961 260.8334961l38.3334961 42.5009766-.1982422 5L155.5 299.0009766"/><path fill="#FBBFDC" d="M135.3334961 260.8334961l38.3334961 42.5009766-.1982422 5L155.5 299.0009766"/><path fill="#C3568B" d="M117.6069336 200.8339844l17.7265625 59.9995117 19.503418-4.0581055"/><path fill="#C3568B" d="M117.6069336 200.8339844l17.7265625 59.9995117 19.503418-4.0581055"/><path fill="#7A2D51" d="M154.8369141 256.7753906S173.5 303.4174804 173.6669922 303.3344726s-.9833984-19.7426758-.9833984-19.7426758l-17.8466797-26.8164062z"/><path fill="#7A2D51" d="M154.8369141 256.7753906S173.5 303.4174804 173.6669922 303.3344726s-.9833984-19.7426758-.9833984-19.7426758l-17.8466797-26.8164062z"/><path fill="#D56F4C" d="M173.6669922 303.3344727c-.0698242-.0400391-.0898438-.0600586-.0498047-.0600586.0200195 0 .0297852.0200195.0498047.0600586z"/><path fill="#D56F4C" d="M173.6669922 303.3344727c-.0698242-.0400391-.0898438-.0600586-.0498047-.0600586.0200195 0 .0297852.0200195.0498047.0600586z"/><path fill="#F1C57D" d="M173.5966797 307.9589844L157 330.3344727 158.375 354.75"/><path fill="#F1C57D" d="M173.5966797 307.9589844L157 330.3344727 158.375 354.75"/><path fill="#D28F42" d="M171.6665039 350.7792969L158.375 354.75l4.125 5.0175781"/><path fill="#D28F42" d="M171.6665039 350.7792969L158.375 354.75l4.125 5.0175781"/><path fill="#C23634" d="M191.5004883 312.5830078s-19 17.918457-18.8334961 17.7514648 24.2348633-11.4404297 23.9848633-11.6069336-5.1513672-6.1445312-5.1513672-6.1445312z"/><path fill="#C23634" d="M191.5004883 312.5830078s-19 17.918457-18.8334961 17.7514648 24.2348633-11.4404297 23.9848633-11.6069336-5.1513672-6.1445312-5.1513672-6.1445312z"/><path fill="#A30754" d="M187.6708984 277.5834961l3.8295899 34.9995117 9.3041992 11.0981445 18.8623047-11.0981445"/><path fill="#A30754" d="M187.6708984 277.5834961l3.8295899 34.9995117 9.3041992 11.0981445 18.8623047-11.0981445"/><path fill="#6BD4DE" d="M185.2993164 255.9072266l2.371582 21.6762695 31.9960938 34.9995117-.8334961-28.9956055"/><path fill="#6BD4DE" d="M185.2993164 255.9072266l2.371582 21.6762695 31.9960938 34.9995117-.8334961-28.9956055"/><path fill="#EBFCFE" d="M183.0478516 235.3291016l2.2514648 20.578125 33.5341797 27.6801757 22.75-16.7539062"/><path fill="#EBFCFE" d="M183.0478516 235.3291016l2.2514648 20.578125 33.5341797 27.6801757 22.75-16.7539062"/><path fill="#F8FEFF" d="M241.5834961 266.8334961l11 28.0834961-33.75-11.3295899"/><path fill="#F8FEFF" d="M241.5834961 266.8334961l11 28.0834961-33.75-11.3295899"/><path fill="#0BC0D0" d="M218.8334961 283.5874023l.8334961 28.9956055 32.9165039-17.6660156"/><path fill="#0BC0D0" d="M218.8334961 283.5874023l.8334961 28.9956055 32.9165039-17.6660156"/><path fill="#D5F1F5" d="M241.5834961 266.8334961l11 28.0834961 40.5834961-2.5825195"/><path fill="#D5F1F5" d="M241.5834961 266.8334961l11 28.0834961 40.5834961-2.5825195"/><path fill="#FFDEA9" d="M252.5834961 294.9169922l-32.9165039 17.6660156 11 15.4174805"/><path fill="#FFDEA9" d="M252.5834961 294.9169922l-32.9165039 17.6660156 11 15.4174805"/><path fill="#FFD086" d="M230.6669922 328.0004883l-29.8623047-4.319336 18.8623047-11.0981445"/><path fill="#FFD086" d="M230.6669922 328.0004883l-29.8623047-4.319336 18.8623047-11.0981445"/><path fill="#FBC094" d="M230.6669922 328.0004883l21.9165039-33.0834961 20.0092773-1.2734375"/><path fill="#FBC094" d="M230.6669922 328.0004883l21.9165039-33.0834961 20.0092773-1.2734375"/><path fill="#F3BC82" d="M230.6669922 328.0004883s41.6757813-34.4404297 41.9257813-34.3569336 20.5742188-1.309082 20.5742188-1.309082l-62.5000001 35.6660156z"/><path fill="#F3BC82" d="M230.6669922 328.0004883s41.6757813-34.4404297 41.9257813-34.3569336 20.5742188-1.309082 20.5742188-1.309082l-62.5000001 35.6660156z"/><path fill="#9C1112" d="M196.6518555 318.7275391l-23.9848633 11.6069336 16.6665039 4.0395507 11.4711914-10.6928711"/><path fill="#9C1112" d="M196.6518555 318.7275391l-23.9848633 11.6069336 16.6665039 4.0395507 11.4711914-10.6928711"/><path fill="#FED382" d="M171.6665039 350.7792969l17.6669922-16.4052735-16.6665039-4.0395507"/><path fill="#FED382" d="M171.6665039 350.7792969l17.6669922-16.4052735-16.6665039-4.0395507M334.8339844 297l-104.1669922 31.0004883 62.5-35.6660156"/><path fill="#FED382" d="M334.8339844 297l-104.1669922 31.0004883 62.5-35.6660156"/><path fill="#FFF6DE" d="M293.1669922 292.3344727L334.8339844 297l30.4990234-10.9990234"/><path fill="#FFF6DE" d="M293.1669922 292.3344727L334.8339844 297l30.4990234-10.9990234"/><path fill="#F69D82" d="M230.6669922 328.0004883l92.4990234 4.8330078L334.8339844 297"/><path fill="#F69D82" d="M230.6669922 328.0004883l92.4990234 4.8330078L334.8339844 297"/><path fill="#FFDEA9" d="M200.8046875 323.6811523s-45.6376953 42.4858398-45.4711914 42.4858398 75.3334961-38.1665039 75.3334961-38.1665039l-29.8623047-4.3193359z"/><path fill="#FFDEA9" d="M200.8046875 323.6811523s-45.6376953 42.4858398-45.4711914 42.4858398 75.3334961-38.1665039 75.3334961-38.1665039l-29.8623047-4.3193359z"/><path fill="#E88465" d="M173.5966797 307.9589844L158.375 354.75l13.2915039-3.9707031"/><path fill="#E88465" d="M173.5966797 307.9589844L158.375 354.75l13.2915039-3.9707031"/><path fill="#FEC88A" d="M230.6669922 328.0004883l-75.3334961 38.1665039L211.8798828 391.5"/><path fill="#FEC88A" d="M230.6669922 328.0004883l-75.3334961 38.1665039L211.8798828 391.5"/><path fill="#DD9F84" d="M230.6669922 328.0004883L211.8798828 391.5S260.375 348.8300781 260 348.8300781s-29.3330078-20.8295898-29.3330078-20.8295898z"/><path fill="#DD9F84" d="M230.6669922 328.0004883L211.8798828 391.5S260.375 348.8300781 260 348.8300781s-29.3330078-20.8295898-29.3330078-20.8295898z"/><path fill="#F2CBAE" d="M230.6669922 328.0004883L260 348.8300781s63.6660156-16.121582 63.1660156-15.996582-92.4990234-4.8330078-92.4990234-4.8330078z"/><path fill="#F2CBAE" d="M230.6669922 328.0004883L260 348.8300781s63.6660156-16.121582 63.1660156-15.996582-92.4990234-4.8330078-92.4990234-4.8330078z"/><path fill="#FEC1B2" d="M379.9511719 318.4165039L260 348.8300781S402.1669922 372.75 401.9169922 372.25c-.1074219-.2148438.6503906-11.3007813 0-18.75-21.9658203-35.0834961-21.9658203-35.0830078-21.9658203-35.0834961z"/><path fill="#FEC1B2" d="M379.9511719 318.4165039L260 348.8300781S402.1669922 372.75 401.9169922 372.25c-.1074219-.2148438.6503906-11.3007813 0-18.75-21.9658203-35.0834961-21.9658203-35.0830078-21.9658203-35.0834961z"/><path fill="#F9A089" d="M334.8339844 297s-11.9179688 36.2084961-11.6679688 35.8334961 57.1601563-14.2919922 56.7851563-14.4169922S334.8339844 297 334.8339844 297z"/><path fill="#F9A089" d="M334.8339844 297s-11.9179688 36.2084961-11.6679688 35.8334961 57.1601563-14.2919922 56.7851563-14.4169922S334.8339844 297 334.8339844 297z"/><path fill="#F77E7B" d="M334.8339844 297l45.1171875 21.4165039 38.3818359-19.4155273"/><path fill="#F77E7B" d="M334.8339844 297l45.1171875 21.4165039 38.3818359-19.4155273"/><path fill="#FFEDBC" d="M365.3330078 286.0009766C364.75 286.1259766 334.3339844 297 334.8339844 297s83.9990234 1.9604492 83.4990234 2.0009766-53-13-53-13z"/><path fill="#FFEDBC" d="M365.3330078 286.0009766C364.75 286.1259766 334.3339844 297 334.8339844 297s83.9990234 1.9604492 83.4990234 2.0009766-53-13-53-13z"/><path fill="#BA6850" d="M418.3330078 299.0009766l-38.3818359 19.4155273L401.9169922 353.5v-10.75l14.171875-13.7900391"/><path fill="#BA6850" d="M418.3330078 299.0009766l-38.3818359 19.4155273L401.9169922 353.5v-10.75l14.171875-13.7900391"/><path fill="#FEC88A" d="M260 348.8300781c1 .375 36.5830078 28.3364258 36.5830078 28.3364258s24.2089844-18.0288086 23.5839844-18.2788086S260 348.8300781 260 348.8300781z"/><path fill="#FEC88A" d="M260 348.8300781c1 .375 36.5830078 28.3364258 36.5830078 28.3364258s24.2089844-18.0288086 23.5839844-18.2788086S260 348.8300781 260 348.8300781z"/><path fill="#4A066E" d="M155.3334961 366.1669922L141 385.3300781s10.8300781 22.8398438 10.8300781 22.3398438 3.503418-41.5029297 3.503418-41.5029297z"/><path fill="#4A066E" d="M155.3334961 366.1669922L141 385.3300781s10.8300781 22.8398438 10.8300781 22.3398438 3.503418-41.5029297 3.503418-41.5029297z"/><path fill="#750DAD" d="M141 385.3300781c-.125.3574219-6.7949219 26.125-6.1699219 26s17-3.6601563 17-3.6601563L141 385.3300781z"/><path fill="#750DAD" d="M141 385.3300781c-.125.3574219-6.7949219 26.125-6.1699219 26s17-3.6601563 17-3.6601563L141 385.3300781z"/><path fill="#250537" d="M134.8300781 411.3300781L141 420.8339844l10.8300781-13.1640625"/><path fill="#250537" d="M134.8300781 411.3300781L141 420.8339844l10.8300781-13.1640625"/><path fill="#E48BE1" d="M296.5830078 377.1665039L281.4165039 397.5 401 387.4165039"/><path fill="#E48BE1" d="M296.5830078 377.1665039L281.4165039 397.5 401 387.4165039"/><path fill="#FFD97F" d="M320.1669922 358.8876953s-24.0839844 18.1538086-23.5839844 18.2788086S402.2919922 372.25 401.9169922 372.25s-81.75-13.3623047-81.75-13.3623047z"/><path fill="#FFD97F" d="M320.1669922 358.8876953s-24.0839844 18.1538086-23.5839844 18.2788086S402.2919922 372.25 401.9169922 372.25s-81.75-13.3623047-81.75-13.3623047z"/><path fill="#FF9DE4" d="M401.9169922 372.25c0 .375-.9169922 15.1665039-.9169922 15.1665039l-104.4169922-10.25L401.9169922 372.25z"/><path fill="#FF9DE4" d="M401.9169922 372.25c0 .375-.9169922 15.1665039-.9169922 15.1665039l-104.4169922-10.25L401.9169922 372.25z"/><path fill="#DD98B1" d="M418.3330078 299.0009766L433.625 298.25l.6220703 12.6147461L423.3125 321.4448242"/><path fill="#DD98B1" d="M418.3330078 299.0009766L433.625 298.25l.6220703 12.6147461L423.3125 321.4448242"/><path fill="#7E375B" d="M418.3330078 299.0009766l-2.2441406 29.9589843 7.2236328-7.5151367"/><path fill="#7E375B" d="M418.3330078 299.0009766l-2.2441406 29.9589843 7.2236328-7.5151367"/><path fill="#D7826E" d="M433.625 298.25l.6220703 12.6147461 9.0205078-8.5302734"/><path fill="#D7826E" d="M433.625 298.25l.6220703 12.6147461 9.0205078-8.5302734"/><path fill="#FFDDD4" d="M418.3349609 298.8583984s14.9169922-.7509766 15.2919922-.7509766 27.8349609-73.5888672 27.8349609-73.5888672l-5.2871094-6.6650391-37.8398437 81.0048829z"/><path fill="#FFDDD4" d="M418.3349609 298.8583984s14.9169922-.7509766 15.2919922-.7509766 27.8349609-73.5888672 27.8349609-73.5888672l-5.2871094-6.6650391-37.8398437 81.0048829z"/><path fill="#C3655B" d="M465.25 234.1879883L470 243.75l-4.75 37.375-21.9824219 21.2094727L433.625 298.25"/><path fill="#C3655B" d="M465.25 234.1879883L470 243.75l-4.75 37.375-21.9824219 21.2094727L433.625 298.25"/><path fill="#EE9680" d="M460.8330078 225.6660156L465.25 234.1879883 433.625 298.25"/><path fill="#EE9680" d="M460.8330078 225.6660156L465.25 234.1879883 433.625 298.25"/><path fill="#647EE8" d="M470 243.75c.375 0 37.6660156 5.625 37.6660156 5.625L465.25 281.125 470 243.75z"/><path fill="#647EE8" d="M470 243.75c.375 0 37.6660156 5.625 37.6660156 5.625L465.25 281.125 470 243.75z"/><path fill="#30ADB2" d="M474.75 175.5l-31.4169922 19.1674805S470.25 243.375 470 243.75s4.75-68.25 4.75-68.25z"/><path fill="#30ADB2" d="M474.75 175.5l-31.4169922 19.1674805S470.25 243.375 470 243.75s4.75-68.25 4.75-68.25z"/><path fill="#10949A" d="M474.75 175.5c-.125.5-5.25 68.25-4.75 68.25s38.5410156 5.5 37.6660156 5.625S474.75 175.5 474.75 175.5z"/><path fill="#10949A" d="M474.75 175.5c-.125.5-5.25 68.25-4.75 68.25s38.5410156 5.5 37.6660156 5.625S474.75 175.5 474.75 175.5z"/><path fill="#F59C91" d="M474.75 175.5c.375-.25 27.25-49.875 27.125-49.5s-18.2089844 69.9995117-18.2089844 69.9995117L474.75 175.5z"/><path fill="#F59C91" d="M474.75 175.5c.375-.25 27.25-49.875 27.125-49.5s-18.2089844 69.9995117-18.2089844 69.9995117L474.75 175.5z"/><path fill="#C94D3F" d="M501.875 126l-18.2089844 69.9995117L512.125 162.875"/><path fill="#C94D3F" d="M501.875 126l-18.2089844 69.9995117L512.125 162.875"/><path fill="#AE004A" d="M501.875 126c.375.0825195 15.4580078 6.6674805 15.4580078 6.6674805L512.125 162.875 501.875 126z"/><path fill="#AE004A" d="M501.875 126c.375.0825195 15.4580078 6.6674805 15.4580078 6.6674805L512.125 162.875 501.875 126z"/><path fill="#A42F57" d="M517.3330078 132.6674805c-.125.0625-5.2080078 30.2075195-5.2080078 30.2075195l25 11.625-19.7919922-41.8325195z"/><path fill="#A42F57" d="M517.3330078 132.6674805c-.125.0625-5.2080078 30.2075195-5.2080078 30.2075195l25 11.625-19.7919922-41.8325195z"/><path fill="#5E2C82" d="M512.125 162.875l-28.4589844 33.1245117L493.5 218.75"/><path fill="#5E2C82" d="M512.125 162.875l-28.4589844 33.1245117L493.5 218.75"/><path fill="#071B48" d="M512.125 162.875S493.0205078 218.25 493.5 218.75s14.0410156 30.25 14.1660156 30.625S521 230.75 521 230.75l-8.875-67.875z"/><path fill="#071B48" d="M512.125 162.875S493.0205078 218.25 493.5 218.75s14.0410156 30.25 14.1660156 30.625S521 230.75 521 230.75l-8.875-67.875z"/><path fill="#CD5470" d="M512.125 162.875s25 11.5 25 11.625S521 230.75 521 230.75l-8.875-67.875z"/><path fill="#CD5470" d="M512.125 162.875s25 11.5 25 11.625S521 230.75 521 230.75l-8.875-67.875z"/><path fill="#D73373" d="M537.125 174.5C537 174.875 521 230.75 521 230.75l18.75-9.625-2.625-46.625z"/><path fill="#D73373" d="M537.125 174.5C537 174.875 521 230.75 521 230.75l18.75-9.625-2.625-46.625z"/><path fill="#B25147" d="M521 230.75c.625.25 19-10.75 18.75-9.625s-22.375 74.5429688-22.375 74.5429688L521 230.75z"/><path fill="#B25147" d="M521 230.75c.625.25 19-10.75 18.75-9.625s-22.375 74.5429688-22.375 74.5429688L521 230.75z"/><path fill="#9E166C" d="M521 230.75s-13.3193359 33.2856445-13.3193359 33.8994141S509.3339844 303.125 509.3339844 303.125l8.0410156-7.4570313L521 230.75z"/><path fill="#9E166C" d="M521 230.75s-13.3193359 33.2856445-13.3193359 33.8994141S509.3339844 303.125 509.3339844 303.125l8.0410156-7.4570313L521 230.75z"/><path fill="#391A62" d="M521 230.75l-13.3339844 18.625.0146485 15.2744141"/><path fill="#391A62" d="M521 230.75l-13.3339844 18.625.0146485 15.2744141"/><path fill="#3C58D5" d="M507.6660156 249.375S464.875 280.875 465.25 281.125s43.9589844 22.625 44.0839844 22-1.6679688-53.75-1.6679688-53.75z"/><path fill="#3C58D5" d="M507.6660156 249.375S464.875 280.875 465.25 281.125s43.9589844 22.625 44.0839844 22-1.6679688-53.75-1.6679688-53.75z"/><path fill="#2C3B7E" d="M465.25 281.125c-.5.125-64.2705078 61.75-63.3330078 61.625S509.9589844 303 509.3339844 303.125s-44.0839844-22-44.0839844-22z"/><path fill="#2C3B7E" d="M465.25 281.125c-.5.125-64.2705078 61.75-63.3330078 61.625S509.9589844 303 509.3339844 303.125s-44.0839844-22-44.0839844-22z"/><path fill="#00032F" d="M509.3339844 303.125L458.1035156 404l45.5634766-42.6655273"/><path fill="#00032F" d="M509.3339844 303.125L458.1035156 404l45.5634766-42.6655273"/><path fill="#06023A" d="M503.6669922 361.3344727S457.6035156 403.875 458.1035156 404s24.2294922 7.3339844 24.2294922 7.3339844l21.3339844-49.9995117z"/><path fill="#06023A" d="M503.6669922 361.3344727S457.6035156 403.875 458.1035156 404s24.2294922 7.3339844 24.2294922 7.3339844l21.3339844-49.9995117z"/><path fill="#300032" d="M458.1035156 404c-.375.5-24.7285156 18.5-24.2285156 18.5s48.4580078-11.1660156 48.4580078-11.1660156L458.1035156 404z"/><path fill="#300032" d="M458.1035156 404c-.375.5-24.7285156 18.5-24.2285156 18.5s48.4580078-11.1660156 48.4580078-11.1660156L458.1035156 404z"/><path fill="#0D0351" d="M401 397.7509766C401.5 397.9326172 458.1035156 404 458.1035156 404S434.25 422.75 433.875 422.5 401 397.7509766 401 397.7509766z"/><path fill="#0D0351" d="M401 397.7509766C401.5 397.9326172 458.1035156 404 458.1035156 404S434.25 422.75 433.875 422.5 401 397.7509766 401 397.7509766z"/><path fill="#F5CA9D" d="M433.875 422.5l36.0625-7.9570312L469.375 441.75"/><path fill="#F5CA9D" d="M433.875 422.5l36.0625-7.9570312L469.375 441.75"/><path fill="#FFE6A9" d="M485.7900391 403.0009766l-3.4570313 8.3330078-12.3955078 3.2089844L469.375 441.75 535 590.375"/><path fill="#FFE6A9" d="M485.7900391 403.0009766l-3.4570313 8.3330078-12.3955078 3.2089844L469.375 441.75 535 590.375"/><path fill="#F8BB9F" d="M433.875 422.5l17.75 46.75 17.75-27.5"/><path fill="#F8BB9F" d="M433.875 422.5l17.75 46.75 17.75-27.5"/><path fill="#BD5362" d="M427 416.9169922c-.125.375.5244141 18.2392578.5244141 18.2392578L433.875 422.5 427 416.9169922z"/><path fill="#BD5362" d="M427 416.9169922c-.125.375.5244141 18.2392578.5244141 18.2392578L433.875 422.5 427 416.9169922z"/><path fill="#983DC3" d="M401.4101563 386.4443359c-.1308594.390625-15.3828125 38.2773438-15.3828125 38.2773438l43.5244141 11.5029297-28.1416016-39.0039063v-10.7763672z"/><path fill="#983DC3" d="M401.4101563 386.4443359c-.1308594.390625-15.3828125 38.2773438-15.3828125 38.2773438l43.5244141 11.5029297-28.1416016-39.0039063v-10.7763672z"/><path fill="#64357B" d="M401 387.4165039l-19.6699219 21.293457L386.5 424.125"/><path fill="#64357B" d="M401 387.4165039l-19.6699219 21.293457L386.5 424.125"/><path fill="#0C4D84" d="M381.3300781 408.7099609C381.6220703 409.0849609 386.5 424.125 386.5 424.125L368 451.5800781l13.3300781-42.8701172z"/><path fill="#0C4D84" d="M381.3300781 408.7099609C381.6220703 409.0849609 386.5 424.125 386.5 424.125L368 451.5800781l13.3300781-42.8701172z"/><path fill="#CF67FF" d="M386.5 424.125s41.2744141 10.78125 41.0244141 11.03125S377.875 531.375 377.875 531.375l8.625-107.25z"/><path fill="#CF67FF" d="M386.5 424.125s41.2744141 10.78125 41.0244141 11.03125S377.875 531.375 377.875 531.375l8.625-107.25z"/><path fill="#E7BCFB" d="M433.875 422.5l17.75 46.75-73.75 62.125"/><path fill="#E7BCFB" d="M433.875 422.5l17.75 46.75-73.75 62.125"/><path fill="#8256F3" d="M386.5 424.125l-38.1875 81.625 29.5625 25.625"/><path fill="#8256F3" d="M386.5 424.125l-38.1875 81.625 29.5625 25.625"/><path fill="#230035" d="M326.25 424.8496094l55.0800781-16.1396485-5.1699218 16.6201172"/><path fill="#230035" d="M326.25 424.8496094l55.0800781-16.1396485-5.1699218 16.6201172"/><path fill="#070228" d="M326.25 424.8496094l49.9101563.4804687-8.1601563 26.25"/><path fill="#070228" d="M326.25 424.8496094l49.9101563.4804687-8.1601563 26.25"/><path fill="#032246" d="M302.5830078 410.6669922c.375.2070313 78.8720703-2.0820313 78.7470703-1.9570313S264.1665039 443 264.1665039 443l38.4165039-32.3330078z"/><path fill="#032246" d="M302.5830078 410.6669922c.375.2070313 78.8720703-2.0820313 78.7470703-1.9570313S264.1665039 443 264.1665039 443l38.4165039-32.3330078z"/><path fill="#3E448E" d="M281.4165039 397.5l99.9135742 11.2099609-78.7470703 1.9570313"/><path fill="#3E448E" d="M281.4165039 397.5l99.9135742 11.2099609-78.7470703 1.9570313"/><path fill="#1E2587" d="M281.4165039 397.5L401 387.4165039l-19.6699219 21.293457"/><path fill="#1E2587" d="M281.4165039 397.5L401 387.4165039l-19.6699219 21.293457"/><path fill="#4069A5" d="M281.4165039 397.5l13.7509766 19.75 7.4155273-6.5830078"/><path fill="#4069A5" d="M281.4165039 397.5l13.7509766 19.75 7.4155273-6.5830078"/><path fill="#2C4569" d="M281.4165039 397.5c.1103516.625-17.25 45.5-17.25 45.5l31.0009766-25.75-13.7509766-19.75z"/><path fill="#2C4569" d="M281.4165039 397.5c.1103516.625-17.25 45.5-17.25 45.5l31.0009766-25.75-13.7509766-19.75z"/><path fill="#240010" d="M326.25 424.8496094S298.6455078 446 299.3955078 446 368 451.5800781 368 451.5800781l-41.75-26.7304687z"/><path fill="#240010" d="M326.25 424.8496094S298.6455078 446 299.3955078 446 368 451.5800781 368 451.5800781l-41.75-26.7304687z"/><path fill="#032248" d="M264.1665039 443c.5.25 48.1665039 17.8330078 48.1665039 17.8330078L368 451.5800781 264.1665039 443z"/><path fill="#032248" d="M264.1665039 443c.5.25 48.1665039 17.8330078 48.1665039 17.8330078L368 451.5800781 264.1665039 443z"/><path fill="#0B3168" d="M312.3330078 460.8330078c.375 0 56.0419922-9.7529297 55.6669922-9.2529297s-27.8339844 42.0869141-27.8339844 42.0869141l-27.8330078-32.8339844z"/><path fill="#0B3168" d="M312.3330078 460.8330078c.375 0 56.0419922-9.7529297 55.6669922-9.2529297s-27.8339844 42.0869141-27.8339844 42.0869141l-27.8330078-32.8339844z"/><path fill="#413D9E" d="M368 451.5800781l-27.8339844 42.0869141L348.3125 505.75"/><path fill="#413D9E" d="M368 451.5800781l-27.8339844 42.0869141L348.3125 505.75"/><path fill="#235C86" d="M264.1665039 443l48.1665039 17.8330078 27.8330078 32.8339844"/><path fill="#235C86" d="M264.1665039 443l48.1665039 17.8330078 27.8330078 32.8339844"/><path fill="#3E53D1" d="M316.6669922 515.1660156C316.9160156 514.75 348.3125 505.75 348.3125 505.75l29.5625 25.625-61.2080078-16.2089844z"/><path fill="#3E53D1" d="M316.6669922 515.1660156C316.9160156 514.75 348.3125 505.75 348.3125 505.75l29.5625 25.625-61.2080078-16.2089844z"/><path fill="#3836CF" d="M282.5830078 491.7890625s41.9140625 10.0087891 41.9140625 10.5625-7.1962891 14.3916016-7.015625 13.9755859c.1806641-.415039-34.8984375-24.5380859-34.8984375-24.5380859z"/><path fill="#3836CF" d="M282.5830078 491.7890625s41.9140625 10.0087891 41.9140625 10.5625-7.1962891 14.3916016-7.015625 13.9755859c.1806641-.415039-34.8984375-24.5380859-34.8984375-24.5380859z"/><path fill="#4E95C5" d="M264.1665039 443l20.1665039 50.0009766-82.6630859 57.3291015"/><path fill="#4E95C5" d="M264.1665039 443l20.1665039 50.0009766-82.6630859 57.3291015"/><path fill="#B384EC" d="M264.1665039 443l-116.0566406 56.6699219 53.5600586 50.6601562"/><path fill="#B384EC" d="M264.1665039 443l-116.0566406 56.6699219 53.5600586 50.6601562"/><path fill="#692FA0" d="M386.5 424.125L368 451.5800781 348.3125 505.75"/><path fill="#692FA0" d="M386.5 424.125L368 451.5800781 348.3125 505.75"/><path fill="#F6D57D" d="M451.625 469.25l-73.75 62.125L404 563.75"/><path fill="#F6D57D" d="M451.625 469.25l-73.75 62.125L404 563.75"/><path fill="#FFF6A4" d="M469.375 441.75c.5410156 1.5644531-19.0625 111.625-19.0625 111.625l84.6875 37-65.625-148.625z"/><path fill="#FFF6A4" d="M469.375 441.75c.5410156 1.5644531-19.0625 111.625-19.0625 111.625l84.6875 37-65.625-148.625z"/><path fill="#307AFD" d="M377.875 531.375L329.6699219 546l-40.6694336 19.8339844 35.5795898 18.7460937"/><path fill="#307AFD" d="M377.875 531.375L329.6699219 546l-40.6694336 19.8339844 35.5795898 18.7460937"/><path fill="#E181A5" d="M178.1669922 448.3339844l-30.0571289 51.3359375L264.1665039 443l-85.9995117 5.3339844z"/><path fill="#E181A5" d="M178.1669922 448.3339844l-30.0571289 51.3359375L264.1665039 443l-85.9995117 5.3339844z"/><path fill="#AB3E50" d="M121.8300781 443C121.1630859 443.3320313 73 499.1699219 73 499.1699219l75.1098633.5L121.8300781 443z"/><path fill="#AB3E50" d="M121.8300781 443C121.1630859 443.3320313 73 499.1699219 73 499.1699219l75.1098633.5L121.8300781 443z"/><path fill="#78284D" d="M73 499.1699219l17 15.5 58.1098633-15"/><path fill="#78284D" d="M73 499.1699219l17 15.5 58.1098633-15"/><path fill="#A43B7C" d="M90 514.6699219l58.1098633-15 3.3896484 29.7470703"/><path fill="#A43B7C" d="M90 514.6699219l58.1098633-15 3.3896484 29.7470703"/><path fill="#E66A6E" d="M90 514.6699219l-20.8325195 22.415039L91.1699219 544.75"/><path fill="#E66A6E" d="M90 514.6699219l-20.8325195 22.415039L91.1699219 544.75"/><path fill="#712264" d="M73 499.1699219l-3.8325195 37.915039L90 514.6699219"/><path fill="#712264" d="M73 499.1699219l-3.8325195 37.915039L90 514.6699219"/><path fill="#D7826E" d="M73 499.1699219l-17 18.1601562L64.6665039 587.75"/><path fill="#D7826E" d="M73 499.1699219l-17 18.1601562L64.6665039 587.75"/><path fill="#FFBAAA" d="M48.6669922 525.3339844L56 517.3300781 64.6665039 587.75"/><path fill="#FFBAAA" d="M48.6669922 525.3339844L56 517.3300781 64.6665039 587.75"/><path fill="#666E13" d="M48.6669922 525.3339844v28.3339844L64.6665039 587.75"/><path fill="#666E13" d="M48.6669922 525.3339844v28.3339844L64.6665039 587.75"/><path fill="#ECEE5D" d="M48.6669922 553.6679688L64.6665039 587.75l2.9165039 33"/><path fill="#ECEE5D" d="M48.6669922 553.6679688L64.6665039 587.75l2.9165039 33"/><path fill="#F1FD80" d="M48.6669922 553.6679688c.1665039 2.5830078.9995117 85.7480469.9995117 85.7480469L67.5830078 620.75l-18.9160156-67.0820312z"/><path fill="#F1FD80" d="M48.6669922 553.6679688c.1665039 2.5830078.9995117 85.7480469.9995117 85.7480469L67.5830078 620.75l-18.9160156-67.0820312z"/><path fill="#FDE9C8" d="M48.6669922 553.6679688C48.6669922 555.0019531 33 619.0009766 33 619.0009766l16.6665039 20.4150391-.9995117-85.7480469z"/><path fill="#FDE9C8" d="M48.6669922 553.6679688C48.6669922 555.0019531 33 619.0009766 33 619.0009766l16.6665039 20.4150391-.9995117-85.7480469z"/><path fill="#D46147" d="M69.1674805 537.0849609L91.1699219 544.75l-26.503418 43"/><path fill="#D46147" d="M69.1674805 537.0849609L91.1699219 544.75l-26.503418 43"/><path fill="#582659" d="M91.1699219 544.75l60.3295898-15.3330078-16.5830078 13.9169922"/><path fill="#582659" d="M91.1699219 544.75l60.3295898-15.3330078-16.5830078 13.9169922"/><path fill="#B54360" d="M151.4995117 529.4169922l-16.5830078 13.9169922 13.1933594 17.3339844"/><path fill="#B54360" d="M151.4995117 529.4169922l-16.5830078 13.9169922 13.1933594 17.3339844"/><path fill="#EE6768" d="M148.1098633 499.6699219l3.3896484 29.7470703 50.1704102 20.9130859"/><path fill="#EE6768" d="M148.1098633 499.6699219l3.3896484 29.7470703 50.1704102 20.9130859"/><path fill="#A03E3F" d="M134.9165039 543.3339844l-8.5830078 41.2382812 21.7763672-23.9042968"/><path fill="#A03E3F" d="M134.9165039 543.3339844l-8.5830078 41.2382812 21.7763672-23.9042968"/><path fill="#7A0C46" d="M134.9165039 543.3339844l-70.25 44.4160156 61.6669922-3.1777344"/><path fill="#7A0C46" d="M134.9165039 543.3339844l-70.25 44.4160156 61.6669922-3.1777344"/><path fill="#EA8B8C" d="M151.4995117 529.4169922L145 583.3339844l56.6699219-33.0039063"/><path fill="#EA8B8C" d="M151.4995117 529.4169922L145 583.3339844l56.6699219-33.0039063"/><path fill="#FFB585" d="M64.6665039 587.75L145 583.3339844 127.5830078 636.5625 64.6665039 587.75z"/><path fill="#FFB585" d="M64.6665039 587.75L145 583.3339844 127.5830078 636.5625 64.6665039 587.75z"/><path fill="#FCF99A" d="M67.5830078 620.75l-17.9165039 18.6660156L95.9023438 652.375"/><path fill="#FCF99A" d="M67.5830078 620.75l-17.9165039 18.6660156L95.9023438 652.375"/><path fill="#E2A550" d="M67.5830078 620.75l19.0844727 21.2509766 40.9155273-5.4384766"/><path fill="#E2A550" d="M67.5830078 620.75l19.0844727 21.2509766 40.9155273-5.4384766"/><path fill="#F86B6D" d="M145 583.3339844L127.5830078 636.5625l74.0869141-86.2324219"/><path fill="#F86B6D" d="M145 583.3339844L127.5830078 636.5625l74.0869141-86.2324219"/><path fill="#FF9947" d="M201.6699219 550.3300781l-39.8779297 46.1708985L187 592.6669922"/><path fill="#FF9947" d="M201.6699219 550.3300781l-39.8779297 46.1708985L187 592.6669922"/><path fill="#FAF24C" d="M201.6699219 550.3300781C201.0029297 551.6210938 187 592.6669922 187 592.6669922l15.8339844-.1904297-1.1640625-42.1464844z"/><path fill="#FAF24C" d="M201.6699219 550.3300781C201.0029297 551.6210938 187 592.6669922 187 592.6669922l15.8339844-.1904297-1.1640625-42.1464844z"/><path fill="#FFB547" d="M161.7919922 596.5009766L127.5830078 636.5625 187 592.6669922"/><path fill="#FFB547" d="M161.7919922 596.5009766L127.5830078 636.5625 187 592.6669922"/><path fill="#1B1464" d="M187 592.6669922L127.5830078 636.5625l75.2509766-44.0859375"/><path fill="#1B1464" d="M187 592.6669922L127.5830078 636.5625l75.2509766-44.0859375"/><path fill="#003663" d="M127.5830078 636.5625l-20.1669922 24.2705078 27.4125977-19.3896484"/><path fill="#003663" d="M127.5830078 636.5625l-20.1669922 24.2705078 27.4125977-19.3896484"/><path fill="#5D6E88" d="M86.6674805 642.0009766L95.9023438 652.375l31.680664-15.8125"/><path fill="#5D6E88" d="M86.6674805 642.0009766L95.9023438 652.375l31.680664-15.8125"/><path fill="#003663" d="M61.6835938 642.5117188l21.9833984 23.8222656L95.9023438 652.375"/><path fill="#003663" d="M61.6835938 642.5117188l21.9833984 23.8222656L95.9023438 652.375"/><path fill="#C1FFFE" d="M49.6665039 639.4160156l12.0170899 3.0957032L65.5 659.3339844"/><path fill="#C1FFFE" d="M49.6665039 639.4160156l12.0170899 3.0957032L65.5 659.3339844"/><path fill="#0076A3" d="M61.6835938 642.5117188L65.5 659.3339844l18.1669922 7"/><path fill="#0076A3" d="M61.6835938 642.5117188L65.5 659.3339844l18.1669922 7"/><path fill="#002157" d="M95.9023438 652.375l-12.2353516 13.9589844 23.7490234-5.5009766"/><path fill="#002157" d="M95.9023438 652.375l-12.2353516 13.9589844 23.7490234-5.5009766"/><path fill="#0D004C" d="M95.9023438 652.375l11.5136718 8.4580078L127.5830078 636.5625"/><path fill="#0D004C" d="M95.9023438 652.375l11.5136718 8.4580078L127.5830078 636.5625"/><path fill="#FFE4B5" d="M65.5 659.3339844l12.8334961 14 5.3334961-7"/><path fill="#FFE4B5" d="M65.5 659.3339844l12.8334961 14 5.3334961-7"/><path fill="#FFD996" d="M83.6669922 666.3339844l-5.3334961 7 48 3"/><path fill="#FFD996" d="M83.6669922 666.3339844l-5.3334961 7 48 3"/><path fill="#E9C052" d="M83.6669922 666.3339844l23.7490234-5.5009766 18.9174805 15.5009766"/><path fill="#E9C052" d="M83.6669922 666.3339844l23.7490234-5.5009766 18.9174805 15.5009766"/><path fill="#DC8F00" d="M107.4160156 660.8330078l18.9174805 15.5009766 43-32.6669922"/><path fill="#DC8F00" d="M107.4160156 660.8330078l18.9174805 15.5009766 43-32.6669922"/><path fill="#EBAD3C" d="M179.8339844 608.9785156l-10.5004883 34.6884766 33.996582-35.0371094"/><path fill="#EBAD3C" d="M179.8339844 608.9785156l-10.5004883 34.6884766 33.996582-35.0371094"/><path fill="#C89901" d="M179.8339844 608.9785156l23-16.5019531.4960937 16.1533203"/><path fill="#C89901" d="M179.8339844 608.9785156l23-16.5019531.4960937 16.1533203"/><path fill="#91A4F5" d="M193.5004883 618.9814453c-1.8339844.8515625-24.1669922 24.6855469-24.1669922 24.6855469l92.0820313 2.0087891-67.9150391-26.694336z"/><path fill="#91A4F5" d="M193.5004883 618.9814453c-1.8339844.8515625-24.1669922 24.6855469-24.1669922 24.6855469l92.0820313 2.0087891-67.9150391-26.694336z"/><path fill="#6DABFF" d="M289.0004883 565.8339844s-85.815918 41.796875-85.6704102 42.7958984 121.25-24.0498047 121.25-24.0498047l-35.5795898-18.7460937z"/><path fill="#6DABFF" d="M289.0004883 565.8339844s-85.815918 41.796875-85.6704102 42.7958984 121.25-24.0498047 121.25-24.0498047l-35.5795898-18.7460937z"/><path fill="#43A8FE" d="M203.3300781 608.6298828l38.7314453 24.7011719 82.5185547-48.7509766"/><path fill="#43A8FE" d="M203.3300781 608.6298828l38.7314453 24.7011719 82.5185547-48.7509766"/><path fill="#7A89E2" d="M326.5 583.375s-86.3500977 49.46875-85.1904297 49.6904297c1.159668.2226563 19.9594727 12.59375 19.9594727 12.59375L326.5 583.375z"/><path fill="#7A89E2" d="M326.5 583.375s-86.3500977 49.46875-85.1904297 49.6904297c1.159668.2226563 19.9594727 12.59375 19.9594727 12.59375L326.5 583.375z"/><path fill="#D681E4" d="M324.5800781 584.5800781s-64.4975586 61.8466797-63.1645508 61.0957031S404 563.75 404 563.75l-79.4199219 20.8300781z"/><path fill="#D681E4" d="M324.5800781 584.5800781s-64.4975586 61.8466797-63.1645508 61.0957031S404 563.75 404 563.75l-79.4199219 20.8300781z"/><path fill="#FFBDB4" d="M272.8769531 642.1318359c.6669922 1.6962891 16.4980469 86.6376954 16.4980469 86.6376954l41.75.1308594-58.2480469-86.7685548z"/><path fill="#FFBDB4" d="M272.8769531 642.1318359c.6669922 1.6962891 16.4980469 86.6376954 16.4980469 86.6376954l41.75.1308594-58.2480469-86.7685548z"/><path fill="#CD3B24" d="M272.9907227 642.0888672L294.21875 636.625l36.90625 92.2753906"/><path fill="#CD3B24" d="M272.9907227 642.0888672L294.21875 636.625l36.90625 92.2753906"/><path fill="#A01D0A" d="M294.171875 636.640625c11.1308594-3.0566406 84.6445313-23.3203125 84.6445313-23.3203125L331.125 728.9003906l-36.953125-92.2597656z"/><path fill="#A01D0A" d="M294.171875 636.640625c11.1308594-3.0566406 84.6445313-23.3203125 84.6445313-23.3203125L331.125 728.9003906l-36.953125-92.2597656z"/><path fill="#C2751C" d="M378.75 613.3476563L428.5 571.5m-49.75 41.8476563L428.5 571.5"/><path fill="#FFBE3A" d="M428.5 571.5L417 728.7324219l42.75.1679687"/><path fill="#FFBE3A" d="M428.5 571.5L417 728.7324219l42.75.1679687"/><path fill="#FFF09D" d="M488.7167969 616.0712891c.2099609 1-28.9667969 112.8291016-28.9667969 112.8291016l98-.1308594-69.0332031-112.6982422z"/><path fill="#FFF09D" d="M488.7167969 616.0712891c.2099609 1-28.9667969 112.8291016-28.9667969 112.8291016l98-.1308594-69.0332031-112.6982422z"/><path fill="#FFD3BD" d="M428.5 571.5l21.8125-18.125 38.4042969 62.6962891"/><path fill="#FFD3BD" d="M428.5 571.5l21.8125-18.125 38.4042969 62.6962891"/><path fill="#FFE090" d="M450.3125 553.375c1 0 84.6875 37 84.6875 37l22.75 138.3945313L450.3125 553.375z"/><path fill="#FFE090" d="M450.3125 553.375c1 0 84.6875 37 84.6875 37l22.75 138.3945313L450.3125 553.375z"/><path fill="#FFEEC5" d="M535 590.375c-.9169922 1.3330078 22.75 138.3945313 22.75 138.3945313h42.875L535 590.375z"/><path fill="#FFEEC5" d="M535 590.375c-.9169922 1.3330078 22.75 138.3945313 22.75 138.3945313h42.875L535 590.375z"/><path fill="#D56F4C" d="M172.6669922 330.3344727l1-27 17.8334961 9.2485351"/><path fill="#D56F4C" d="M172.6669922 330.3344727l1-27 17.8334961 9.2485351"/><path fill="#CA4570" d="M148.1098633 560.6679688l-21.7763672 23.9042968L145 583.3339844"/><path fill="#CA4570" d="M148.1098633 560.6679688l-21.7763672 23.9042968L145 583.3339844"/><path fill="#0A1D35" d="M326.25 424.8496094L264.1665039 443l35.2290039 3"/><path fill="#0A1D35" d="M326.25 424.8496094L264.1665039 443l35.2290039 3"/><path fill="#0A437E" d="M323.1669922 502.5419922l16.9990234-8.875L264.1665039 443"/><path fill="#0A437E" d="M323.1669922 502.5419922l16.9990234-8.875L264.1665039 443"/><path fill="#FFC5A3" d="M155.4067383 365.9169922l57.7231445 25.9160156L151.8300781 408.375"/><path fill="#FFC5A3" d="M155.4067383 365.9169922l57.7231445 25.9160156L151.8300781 408.375"/><path fill="#C26D7C" d="M296.5830078 377.1665039L211.8798828 391.5 260 348.8300781"/><path fill="#C26D7C" d="M296.5830078 377.1665039L211.8798828 391.5 260 348.8300781"/><path fill="#660969" d="M401.9169922 342.75L458.1035156 404l51.2304688-100.875"/><path fill="#660969" d="M401.9169922 342.75L458.1035156 404l51.2304688-100.875"/><path fill="#660969" d="M401 397.7509766L458.1035156 404l-56.1865234-61.25"/><path fill="#660969" d="M401 397.7509766L458.1035156 404l-56.1865234-61.25"/><path fill="#D07D89" d="M401 397.7509766l26.5244141 37.4052734L427 416.9169922"/><path fill="#D07D89" d="M401 397.7509766l26.5244141 37.4052734L427 416.9169922"/><path fill="#FDEFC8" d="M211.8798828 391.5c-.75.9990234-60.0498047 16.1699219-60.0498047 16.1699219s-31 35.8300781-30 35.3300781 90.0498047-51.5 90.0498047-51.5z"/><path fill="#FDEFC8" d="M211.8798828 391.5c-.75.9990234-60.0498047 16.1699219-60.0498047 16.1699219s-31 35.8300781-30 35.3300781 90.0498047-51.5 90.0498047-51.5z"/><path fill="#E6696D" d="M211.8798828 391.5L121.8300781 443s26.1547852 57.0449219 26.2797852 56.6699219S211.8798828 391.5 211.8798828 391.5z"/><path fill="#E6696D" d="M211.8798828 391.5L121.8300781 443s26.1547852 57.0449219 26.2797852 56.6699219S211.8798828 391.5 211.8798828 391.5z"/><path fill="#CB5E7C" d="M211.8798828 391.5l52.2866211 51.5-85.9995117 5.3339844"/><path fill="#CB5E7C" d="M211.8798828 391.5l52.2866211 51.5-85.9995117 5.3339844"/><path fill="#DB8994" d="M211.8798828 391.5l52.2866211 51.5 19.4213867-48.4106445"/><path fill="#DB8994" d="M211.8798828 391.5l52.2866211 51.5 19.4213867-48.4106445"/><path fill="#CD715F" d="M296.5830078 377.1665039L211.8798828 391.5l69.5366211 6"/><path fill="#CD715F" d="M296.5830078 377.1665039L211.8798828 391.5l69.5366211 6"/><path fill="#026883" d="M323.1669922 502.5419922l16.9990234-8.875S348.3144531 505.5400391 348.3125 505.75s-25.1455078-3.2080078-25.1455078-3.2080078z"/><path fill="#026883" d="M323.1669922 502.5419922l16.9990234-8.875S348.3144531 505.5400391 348.3125 505.75s-25.1455078-3.2080078-25.1455078-3.2080078z"/><path fill="#1145F2" d="M316.6669922 515.1660156l6.5-12.6240234S348.4375 505.375 348.3125 505.75s-31.6455078 9.4160156-31.6455078 9.4160156z"/><path fill="#1145F2" d="M316.6669922 515.1660156l6.5-12.6240234S348.4375 505.375 348.3125 505.75s-31.6455078 9.4160156-31.6455078 9.4160156z"/><path fill="#5000F0" d="M316.6669922 515.1660156c.5 0 61.2080078 16.2089844 61.2080078 16.2089844L329.6699219 546l-13.0029297-30.8339844z"/><path fill="#5000F0" d="M316.6669922 515.1660156c.5 0 61.2080078 16.2089844 61.2080078 16.2089844L329.6699219 546l-13.0029297-30.8339844z"/><path fill="#6157FF" d="M284.3330078 493.0009766s-83.2880859 57.2041016-82.6630859 57.3291016 114.9970703-35.1640625 114.9970703-35.1640625l-32.3339844-22.1650391z"/><path fill="#6157FF" d="M284.3330078 493.0009766s-83.2880859 57.2041016-82.6630859 57.3291016 114.9970703-35.1640625 114.9970703-35.1640625l-32.3339844-22.1650391z"/><path fill="#6B6EFF" d="M201.6699219 550.3300781c.7900391-.375 114.7470703-35.5390625 114.9970703-35.1640625S329.6699219 546 329.6699219 546l-128 4.3300781z"/><path fill="#6B6EFF" d="M201.6699219 550.3300781c.7900391-.375 114.7470703-35.5390625 114.9970703-35.1640625S329.6699219 546 329.6699219 546l-128 4.3300781z"/><path fill="#115FAF" d="M264.1665039 443c0 .09375 20.1665039 50.0009766 20.1665039 50.0009766l38.8330078 9.5410156L264.1665039 443z"/><path fill="#115FAF" d="M264.1665039 443c0 .09375 20.1665039 50.0009766 20.1665039 50.0009766l38.8330078 9.5410156L264.1665039 443z"/><path fill="#FFE090" d="M428.5 571.5l31.25 157.4003906 28.9667969-112.8291015"/><path fill="#FFE090" d="M428.5 571.5l31.25 157.4003906 28.9667969-112.8291015"/><path fill="#C2751C" d="M417 728.7324219l-38.25-115.3847656L428.5 571.5"/><path fill="#C2751C" d="M417 728.7324219l-38.25-115.3847656L428.5 571.5"/><path fill="#C44532" d="M378.75 613.3476563l-47.625 115.5527343 85.875-.1679687"/><path fill="#C44532" d="M378.75 613.3476563l-47.625 115.5527343 85.875-.1679687"/><path fill="#F9B94A" d="M377.875 531.5175781l-53.2949219 53.2050782L404 563.8925781"/><path fill="#F9B94A" d="M377.875 531.5175781l-53.2949219 53.2050782L404 563.8925781"/><path fill="#1D1293" d="M127.5830078 636.5625l7.2456055 4.8808594 68.0053711-48.9667969"/><path fill="#1D1293" d="M127.5830078 636.5625l7.2456055 4.8808594 68.0053711-48.9667969"/><path fill="#320024" d="M91.1699219 544.75l43.746582-1.4160156-70.25 44.4160156"/><path fill="#320024" d="M91.1699219 544.75l43.746582-1.4160156-70.25 44.4160156"/><path fill="#FFC65E" d="M107.4160156 660.8330078l72.4179688-51.8544922-10.5004883 34.6884766"/><path fill="#FFC65E" d="M107.4160156 660.8330078l72.4179688-51.8544922-10.5004883 34.6884766"/><path fill="#96ADFF" d="M329.6699219 546l-128 4.3300781 1.6601562 58.2998047"/><path fill="#96ADFF" d="M329.6699219 546l-128 4.3300781 1.6601562 58.2998047"/><path fill="#FDBB99" d="M403.9863281 562.5c-.5.25-25.2363281 50.8476563-25.2363281 50.8476563L450.3125 553.375l-46.3261719 9.125z"/><path fill="#FDBB99" d="M403.9863281 562.5c-.5.25-25.2363281 50.8476563-25.2363281 50.8476563L450.3125 553.375l-46.3261719 9.125z"/><path fill="#FAFB96" d="M451.625 469.25c-.3330078 1.75-48.5703125 95.1669922-47.625 94.5s46.3125-10.375 46.3125-10.375l1.3125-84.125z"/><path fill="#FAFB96" d="M451.625 469.25c-.3330078 1.75-48.5703125 95.1669922-47.625 94.5s46.3125-10.375 46.3125-10.375l1.3125-84.125z"/><path fill="#FFA89B" d="M261.4155273 645.6757813L404 563.75l-25.25 49.5976563"/><path fill="#FFA89B" d="M261.4155273 645.6757813L404 563.75l-25.25 49.5976563"/><path fill="#51E8ED" d="M362.25 134.5l64.75-3.8325195L474.75 175.5"/><path fill="#51E8ED" d="M362.25 134.5l64.75-3.8325195L474.75 175.5"/><path fill="#3F0B41" d="M401.9169922 342.75L458.1035156 404 401 397.7509766l.90625-54.3857422"/><path fill="#3F0B41" d="M401.9169922 342.75L458.1035156 404 401 397.7509766l.90625-54.3857422"/></svg>